<svg xmlns="http://www.w3.org/2000/svg" viewBox="0 0 41.5 41.5"><defs><style>.cls-1{fill:none;stroke:#444;stroke-linecap:round;stroke-linejoin:round;stroke-width:1.5px;}</style></defs><title>Asset 6</title><g id="Layer_2" data-name="Layer 2"><g id="icon"><path class="cls-1" d="M25.75,17.75V27a2.5,2.5,0,0,1-2.5,2.5h0a2.5,2.5,0,0,1-2.5-2.5V17.75"/><line class="cls-1" x1="28.75" y1="17.75" x2="28.75" y2="30.75"/><line class="cls-1" x1="20.75" y1="7.75" x2="20.75" y2="10.75"/><path class="cls-1" d="M20.75,17.75v9.53a2.5,2.5,0,0,1-2.5,2.5h0a2.5,2.5,0,0,1-2.5-2.5v-7.9a.64.64,0,0,0-.65-.63h-.3A4.16,4.16,0,0,0,10.75,23v.11a.64.64,0,0,0,.65.63h4.35"/><path class="cls-1" d="M23.75,12.75v1.37a1.5,1.5,0,0,1-1.5,1.5h0a1.5,1.5,0,0,1-1.5-1.5V12.75"/><path class="cls-1" d="M20.75,12.75v1.37a1.5,1.5,0,0,1-1.5,1.5h0a1.5,1.5,0,0,1-1.5-1.5V12.75"/><polygon class="cls-1" points="34.75 14.75 34.75 6.75 26.75 6.75 20.75 0.75 14.75 6.75 6.75 6.75 6.75 14.75 0.75 20.75 6.75 26.75 6.75 34.75 14.75 34.75 20.75 40.75 26.75 34.75 34.75 34.75 34.75 26.75 40.75 20.75 34.75 14.75"/></g></g></svg>