<svg xmlns="http://www.w3.org/2000/svg" viewBox="0 0 43.5 35.67"><defs><style>.cls-1{fill:none;stroke:#444;stroke-linecap:round;stroke-linejoin:round;stroke-width:1.5px;}</style></defs><title>Asset 1</title><g id="Layer_2" data-name="Layer 2"><g id="icon"><polyline class="cls-1" points="3.03 4.81 0.75 4.01 0.75 27.56 32.75 34.92 32.75 30.75"/><polyline class="cls-1" points="41.08 4.63 42.75 4.01 42.75 27.56 10.75 34.92 10.75 30.75"/><path class="cls-1" d="M25.75,24.75h14V.75h-14a3,3,0,0,0-3,3v21"/><path class="cls-1" d="M19.75,24.75h-14V.75h14a3,3,0,0,1,3,3"/><line class="cls-1" x1="9.75" y1="11.75" x2="18.75" y2="11.75"/><line class="cls-1" x1="9.75" y1="7.75" x2="18.75" y2="7.75"/><line class="cls-1" x1="9.75" y1="15.75" x2="18.75" y2="15.75"/><polyline class="cls-1" points="34.75 0.75 34.75 13.66 31.75 11.53 28.75 13.66 28.75 0.75"/></g></g></svg>