<svg xmlns="http://www.w3.org/2000/svg" viewBox="0 0 35.5 43.5"><defs><style>.cls-1{fill:none;stroke:#444;stroke-linecap:round;stroke-linejoin:round;stroke-width:1.5px;}</style></defs><title>Asset 8</title><g id="Layer_2" data-name="Layer 2"><g id="icon"><path class="cls-1" d="M18.75,40.75h-14a4,4,0,0,1-4-4v-32a4,4,0,0,1,4-4h30v40h-6"/><path class="cls-1" d="M34.75,32.75h-30a4,4,0,0,0-4,4h0"/><polygon class="cls-1" points="28.75 32.75 28.75 42.75 23.75 39.75 18.75 42.75 18.75 32.75 28.75 32.75"/><line class="cls-1" x1="7.75" y1="0.75" x2="7.75" y2="32.75"/><line class="cls-1" x1="28.75" y1="36.75" x2="34.75" y2="36.75"/><line class="cls-1" x1="5.75" y1="36.75" x2="18.75" y2="36.75"/><polygon class="cls-1" points="26.75 14.46 26.75 10.75 23.04 10.75 20.25 7.96 17.46 10.75 13.75 10.75 13.75 14.46 10.96 17.25 13.75 20.04 13.75 23.75 17.46 23.75 20.25 26.54 23.04 23.75 26.75 23.75 26.75 20.04 29.54 17.25 26.75 14.46"/><path class="cls-1" d="M23.9,16.59a3.47,3.47,0,0,1-1,2.42,3.52,3.52,0,0,1-5-5,3.48,3.48,0,0,1,2-1"/><line class="cls-1" x1="20.38" y1="16.54" x2="21.17" y2="15.74"/></g></g></svg>