<svg xmlns="http://www.w3.org/2000/svg" viewBox="0 0 64.51 42"><defs><style>.cls-1{fill:none;stroke:#444;stroke-linecap:round;stroke-linejoin:round;stroke-width:1.5px;}</style></defs><title>Asset 5</title><g id="Layer_2" data-name="Layer 2"><g id="icon"><line class="cls-1" x1="46.76" y1="28.75" x2="46.76" y2="40.75"/><line class="cls-1" x1="49.76" y1="28.75" x2="49.76" y2="40.75"/><path class="cls-1" d="M53.76,22.75v1.88a2.12,2.12,0,0,0,2.12,2.12h1a6.88,6.88,0,0,1,6.87,6.88v7.12"/><line class="cls-1" x1="56.76" y1="33.75" x2="56.76" y2="40.75"/><line class="cls-1" x1="38.76" y1="33.75" x2="38.76" y2="40.75"/><path class="cls-1" d="M33.76,40.75V33.63a6.88,6.88,0,0,1,6.88-6.88h0a2.12,2.12,0,0,0,2.12-2.12V22.75"/><path class="cls-1" d="M56.76,9.25v7.56a6.94,6.94,0,0,1-6.94,6.94H46.7a6.94,6.94,0,0,1-6.94-6.94V9.25a8.51,8.51,0,0,1,8.5-8.5h0A8.5,8.5,0,0,1,56.76,9.25Z"/><path class="cls-1" d="M44.76,22.75v-3.5a3.5,3.5,0,0,1,3.5-3.5h0a3.5,3.5,0,0,1,3.5,3.5v3.5"/><path class="cls-1" d="M53.76,26.05a7.3,7.3,0,0,1-5.67,2.81h0a7.25,7.25,0,0,1-5.33-2.41"/><line class="cls-1" x1="39.76" y1="10.75" x2="56.76" y2="10.75"/><line class="cls-1" x1="7.75" y1="41.25" x2="7.75" y2="35.25"/><line class="cls-1" x1="21.75" y1="41.25" x2="21.75" y2="35.25"/><line class="cls-1" x1="20.75" y1="13.25" x2="8.75" y2="13.25"/><path class="cls-1" d="M18,20.94a4.5,4.5,0,0,1-3.29,1.43h0a4.52,4.52,0,0,1-3.42-1.57"/><path class="cls-1" d="M28.75,41.25V32.9a4.8,4.8,0,0,0-1.83-3.77,5.42,5.42,0,0,1-2.17-4.22V13.26a10,10,0,0,0-10-10h0a10,10,0,0,0-10,10V24.91a5.44,5.44,0,0,1-2.17,4.22A4.77,4.77,0,0,0,.75,32.9v8.35"/><path class="cls-1" d="M16.15,8.35a7,7,0,0,1,5.6,6.86v3.5a7,7,0,0,1-7,7h0a7,7,0,0,1-7-7v-3.5a7,7,0,0,1,5.59-6.86"/></g></g></svg>